<svg xmlns="http://www.w3.org/2000/svg" height="60" width="49"><g fill="#1A8383"><path d="M48.75 24.375C48.75 10.935 37.815 0 24.375 0S0 10.935 0 24.375a24.36 24.36 0 0 0 15.938 22.874v4.313a4.694 4.694 0 0 0 3.828 4.609C20.171 58.347 22.084 60 24.375 60s4.204-1.653 4.609-3.829a4.694 4.694 0 0 0 3.828-4.609v-4.313A24.36 24.36 0 0 0 48.75 24.375zm-24.375 33.75a2.817 2.817 0 0 1-2.651-1.875h5.302a2.817 2.817 0 0 1-2.651 1.875zm7.2-12.426a.923.923 0 0 0-.376.239H30a.937.937 0 1 0 0 1.874h.938v3.75a2.816 2.816 0 0 1-2.813 2.813h-7.5a2.816 2.816 0 0 1-2.813-2.813v-3.75h8.438a.937.937 0 1 0 0-1.874h-8.699a.923.923 0 0 0-.376-.239 22.487 22.487 0 0 1-15.3-21.324c0-12.407 10.093-22.5 22.5-22.5s22.5 10.093 22.5 22.5a22.487 22.487 0 0 1-15.3 21.324z"/><path d="M43.828 17.13a20.753 20.753 0 0 0-4.867-7.71 20.765 20.765 0 0 0-7.711-4.866.937.937 0 1 0-.625 1.768 18.865 18.865 0 0 1 7.01 4.425 18.87 18.87 0 0 1 4.426 7.008.938.938 0 1 0 1.767-.625z"/><path stroke="#1A8383" stroke-width="1.5" d="M34.918 20.249a.362.362 0 0 0-.232.456c.342 1.048.516 2.144.516 3.257 0 2.802-1.091 5.436-3.072 7.418-1.982 1.981-4.616 3.072-7.418 3.072s-5.436-1.091-7.417-3.072a10.424 10.424 0 0 1-3.072-7.418c0-2.801 1.091-5.436 3.072-7.417s4.616-3.072 7.417-3.072a10.462 10.462 0 0 1 7.693 3.358.36.36 0 1 0 .53-.491 11.168 11.168 0 0 0-8.223-3.59c-2.995 0-5.81 1.166-7.928 3.284S13.5 20.967 13.5 23.962s1.166 5.811 3.284 7.929c2.118 2.117 4.933 3.284 7.928 3.284s5.811-1.167 7.929-3.284a11.144 11.144 0 0 0 3.284-7.929c0-1.189-.186-2.361-.552-3.481a.36.36 0 0 0-.455-.232z"/></g></svg>