<svg xmlns="http://www.w3.org/2000/svg" height="60" width="54"><g fill="#017676"><path d="M32.586 20.014a10.307 10.307 0 0 1 7.583 8.264.939.939 0 0 0 1.85-.31 12.186 12.186 0 0 0-8.965-9.769.936.936 0 1 0-.468 1.815z"/><path d="M15.777 49.527a3.728 3.728 0 0 0 1.098-2.652c0-.681-.181-1.334-.519-1.905l3.063-3.063A15.87 15.87 0 0 0 30 45.938c8.788 0 15.938-7.15 15.938-15.938S38.788 14.062 30 14.062 14.062 21.212 14.062 30a15.87 15.87 0 0 0 4.031 10.581l-3.063 3.063a3.727 3.727 0 0 0-1.905-.519c-1.002 0-1.943.39-2.652 1.098l-9.375 9.375C.39 54.307 0 55.248 0 56.25s.39 1.943 1.098 2.652c.731.731 1.692 1.096 2.652 1.096s1.92-.365 2.652-1.096l9.375-9.375zM30 15.938c7.754 0 14.062 6.308 14.062 14.062S37.754 44.062 30 44.062 15.938 37.754 15.938 30 22.246 15.938 30 15.938zM14.451 48.201l-9.375 9.375a1.877 1.877 0 0 1-3.201-1.326c0-.501.195-.972.55-1.326l9.374-9.375c.354-.354.825-.549 1.326-.549s.972.195 1.326.549.549.825.549 1.326-.195.972-.549 1.326z"/><path d="M53.433 13.032l-.006-.039c-.002-.017-.004-.034-.008-.051l-.011-.046a.678.678 0 0 0-.011-.043c-.004-.015-.01-.03-.015-.044l-.016-.043c-.005-.014-.012-.027-.018-.04l-.021-.043-.022-.037a.544.544 0 0 0-.054-.08l-.026-.035a.852.852 0 0 0-.057-.063l-.005-.006L40.975.274a1.031 1.031 0 0 0-.094-.081l-.023-.017a1.022 1.022 0 0 0-.104-.066l-.008-.004a.975.975 0 0 0-.107-.046l-.022-.01a.894.894 0 0 0-.273-.05H9.375a2.816 2.816 0 0 0-2.813 2.813v40.311a.937.937 0 1 0 1.875.002V2.814c0-.518.421-.938.938-.938h30v9.375a2.815 2.815 0 0 0 2.813 2.812h5.624a.937.937 0 1 0 0-1.874h-5.624a.94.94 0 0 1-.938-.938V3.2l10.312 10.312v43.675c0 .516-.42.937-.937.937H10.313a.938.938 0 1 0 0 1.875h40.312a2.816 2.816 0 0 0 2.813-2.812V13.125a.966.966 0 0 0-.005-.093z"/><path d="M38.438 30a.938.938 0 0 0-.938-.938H18.75a.938.938 0 0 0 0 1.876H37.5c.518 0 .938-.42.938-.938zm.937 3.75H21.562a.938.938 0 0 0 0 1.875h17.813a.937.937 0 1 0 0-1.875zm-17.813-7.5h14.063a.937.937 0 0 0 0-1.875H21.562a.938.938 0 0 0 0 1.875z"/></g></svg>