<svg xmlns="http://www.w3.org/2000/svg" height="60" width="63"><g fill="#1A8383"><path d="M61.714 4.04H32.327V1.103a.98.98 0 0 0-1.96 0V4.04H.979A.98.98 0 0 0 .98 6h.98v34.286a2.942 2.942 0 0 0 2.939 2.938H19.87l-1.934 4.192a.973.973 0 0 0-.299.648l-4.811 10.423a.978.978 0 0 0 .889 1.39.98.98 0 0 0 .89-.57l4.71-10.205H43.38l4.71 10.206a.98.98 0 1 0 1.779-.821l-4.811-10.423a.97.97 0 0 0-.299-.648l-1.934-4.192h14.971a2.942 2.942 0 0 0 2.939-2.938V6h.979a.98.98 0 1 0 0-1.96zM42.475 47.144H20.219l1.808-3.92h18.64l1.808 3.92zm16.301-6.857a.98.98 0 0 1-.98.979H4.898a.98.98 0 0 1-.98-.98V6h54.858v34.286z"/><path d="M30.367 35.388V19.714a.98.98 0 0 0-.979-.98H23.51a.98.98 0 0 0-.979.98v15.674h-1.96V28.53a.98.98 0 0 0-.979-.979h-5.878a.98.98 0 0 0-.979.979v6.858h-2.94v-24.49a.98.98 0 1 0-1.958 0v25.469c0 .541.438.98.98.98h45.06a.98.98 0 0 0 0-1.959h-3.919v-24.49a.98.98 0 0 0-.979-.98h-5.878a.98.98 0 0 0-.98.98v24.49h-1.959V24.612a.979.979 0 0 0-.979-.979h-5.878a.979.979 0 0 0-.979.979v10.776h-1.96zm-5.877-11.35l3.344-3.344h.574v1.553l-3.918 3.919v-2.128zm0 4.898l3.918-3.918v2.127l-3.918 3.918v-2.127zm.574-8.242l-.574.574v-.574h.574zm-.574 13.14l3.918-3.918v2.127l-3.344 3.345h-.574v-1.554zm-9.796 1.554V29.51h3.918v5.878h-3.918zm13.14 0l.574-.574v.574h-.574zm19.592 0l.574-.574v.574h-.574zM44.082 19.14L48 15.222v2.127l-3.918 3.919V19.14zm0 4.898L48 20.12v2.127l-3.918 3.919v-2.128zm0 4.898L48 25.018v2.127l-3.918 3.918v-2.127zM48 12.451l-3.918 3.919v-2.128l2.365-2.365H48v.574zm-3.918 21.383L48 29.916v2.127l-3.345 3.345h-.573v-1.554zm-9.796-8.242h3.918v9.796h-3.918v-9.796z"/></g></svg>