<svg xmlns="http://www.w3.org/2000/svg" height="60" width="60"><g fill="#1A8383"><path d="M48.255 22.555a.937.937 0 0 0-.571 1.196A18.719 18.719 0 0 1 48.75 30c0 10.339-8.411 18.75-18.75 18.75S11.25 40.339 11.25 30 19.661 11.25 30 11.25c4.448 0 8.76 1.585 12.142 4.462a.938.938 0 0 0 1.215-1.428A20.63 20.63 0 0 0 30 9.375C18.627 9.375 9.375 18.627 9.375 30S18.627 50.625 30 50.625 50.625 41.373 50.625 30c0-2.358-.395-4.67-1.173-6.873a.938.938 0 0 0-1.197-.572z"/><path d="M45.973 20.176a.939.939 0 0 0 1.597-.984 20.827 20.827 0 0 0-1.368-1.956.937.937 0 1 0-1.472 1.161c.447.567.865 1.165 1.243 1.779z"/><path d="M56.25 24.375h-1.569a25.029 25.029 0 0 0-3.251-7.851l1.109-1.108c.706-.706 1.095-1.648 1.095-2.652s-.389-1.945-1.095-2.651l-2.652-2.652a3.754 3.754 0 0 0-5.303 0L43.476 8.57a25.017 25.017 0 0 0-7.851-3.25V3.75A3.754 3.754 0 0 0 31.875 0h-3.75a3.754 3.754 0 0 0-3.75 3.75v1.57a25.017 25.017 0 0 0-7.851 3.25l-1.108-1.11a3.754 3.754 0 0 0-5.303 0l-2.652 2.653c-.706.706-1.095 1.647-1.095 2.651s.389 1.946 1.095 2.652l1.109 1.108a25.022 25.022 0 0 0-3.25 7.851H3.75A3.754 3.754 0 0 0 0 28.125v3.75a3.754 3.754 0 0 0 3.75 3.75h1.57a25.007 25.007 0 0 0 3.25 7.85l-1.11 1.109a3.754 3.754 0 0 0 0 5.303l2.652 2.652c.706.706 1.647 1.095 2.651 1.095s1.946-.389 2.652-1.095l1.108-1.109a25.003 25.003 0 0 0 7.851 3.25v1.57a3.754 3.754 0 0 0 3.75 3.75h3.75a3.754 3.754 0 0 0 3.75-3.75v-1.57a25.007 25.007 0 0 0 7.85-3.25l1.109 1.109a3.724 3.724 0 0 0 2.651 1.095 3.725 3.725 0 0 0 2.652-1.095l2.652-2.652a3.754 3.754 0 0 0 0-5.303l-1.109-1.109a25.011 25.011 0 0 0 3.25-7.85h1.57a3.754 3.754 0 0 0 3.75-3.75v-3.75a3.754 3.754 0 0 0-3.75-3.75zm1.875 7.5a1.877 1.877 0 0 1-1.875 1.875h-2.33a.937.937 0 0 0-.92.758 23.201 23.201 0 0 1-3.548 8.569.94.94 0 0 0 .115 1.187l1.646 1.646a1.878 1.878 0 0 1 0 2.652l-2.651 2.651a1.878 1.878 0 0 1-2.652 0l-1.646-1.646a.94.94 0 0 0-1.187-.115A23.208 23.208 0 0 1 34.508 53a.937.937 0 0 0-.758.92v2.33a1.877 1.877 0 0 1-1.875 1.875h-3.75a1.877 1.877 0 0 1-1.875-1.875v-2.33a.937.937 0 0 0-.758-.92 23.201 23.201 0 0 1-8.569-3.548.937.937 0 0 0-1.186.115l-1.647 1.646a1.878 1.878 0 0 1-2.652 0l-2.651-2.651a1.878 1.878 0 0 1 0-2.652l1.646-1.646a.94.94 0 0 0 .115-1.187A23.194 23.194 0 0 1 7 34.508a.938.938 0 0 0-.92-.758H3.75a1.877 1.877 0 0 1-1.875-1.875v-3.75c0-1.034.841-1.875 1.875-1.875h2.33a.938.938 0 0 0 .92-.758 23.191 23.191 0 0 1 3.548-8.569.94.94 0 0 0-.115-1.187L8.787 14.09c-.352-.352-.546-.823-.546-1.326s.194-.974.546-1.326l2.651-2.651a1.877 1.877 0 0 1 2.652 0l1.646 1.646a.94.94 0 0 0 1.187.115A23.182 23.182 0 0 1 25.492 7a.938.938 0 0 0 .758-.92V3.75c0-1.034.841-1.875 1.875-1.875h3.75c1.034 0 1.875.841 1.875 1.875v2.33c0 .449.318.834.758.92a23.208 23.208 0 0 1 8.569 3.548.938.938 0 0 0 1.186-.115l1.647-1.646a1.876 1.876 0 0 1 2.651 0l2.652 2.651c.352.352.546.823.546 1.326s-.194.974-.546 1.326l-1.646 1.646a.937.937 0 0 0-.115 1.187 23.176 23.176 0 0 1 3.547 8.569c.086.44.472.758.921.758h2.33c1.034 0 1.875.841 1.875 1.875v3.75z"/><path stroke="#1A8383" stroke-width="1.5" d="M40.168 26.249a.362.362 0 0 0-.232.456c.342 1.048.516 2.144.516 3.257 0 2.802-1.091 5.436-3.072 7.418-1.982 1.981-4.616 3.072-7.418 3.072s-5.436-1.091-7.417-3.072a10.424 10.424 0 0 1-3.072-7.418c0-2.801 1.091-5.436 3.072-7.417s4.616-3.072 7.417-3.072a10.462 10.462 0 0 1 7.693 3.358.36.36 0 1 0 .53-.491 11.168 11.168 0 0 0-8.223-3.59c-2.995 0-5.81 1.166-7.928 3.284s-3.284 4.933-3.284 7.928 1.166 5.811 3.284 7.929c2.118 2.117 4.933 3.284 7.928 3.284s5.811-1.167 7.929-3.284a11.144 11.144 0 0 0 3.284-7.929c0-1.189-.186-2.361-.552-3.481a.36.36 0 0 0-.455-.232z"/></g></svg>